Coordinates
version=1
nRows=32
nColumns=22
inDegrees=yes

Units are S.I. units (second, meters, Newtons, ...)
If the header above contains a line with 'inDegrees', this indicates whether rotational values are in degrees (yes) or radians (no).

endheader
time	pelvis_tilt	pelvis_list	pelvis_rotation	pelvis_tx	pelvis_ty	pelvis_tz	hip_flexion_r	hip_adduction_r	hip_rotation_r	knee_angle_r	ankle_angle_r	subtalar_angle_r	hip_flexion_l	hip_adduction_l	hip_rotation_l	knee_angle_l	ankle_angle_l	subtalar_angle_l	lumbar_extension	lumbar_bending	lumbar_rotation
      3.65000000	     -0.55517120	     -1.09754858	   -351.24668993	      0.09239861	      0.94854954	     -0.41770916	     25.48255869	      4.46503961	     -3.96489137	    -63.74916953	      6.37863780	     -4.68275660	      9.98957020	     -5.55810361	      1.92378045	    -22.72193865	     11.76939874	      2.68712281	     -6.66853211	     -1.36770540	     -4.65350882
      3.66000000	     -0.38152041	     -1.16782405	   -351.75447115	      0.10044412	      0.94930181	     -0.41869262	     26.21134379	      4.33002960	     -4.80667345	    -62.49371262	      6.78236382	     -4.76527429	      8.82766435	     -5.72516928	      1.29344805	    -22.12465544	     12.05056577	      2.55203768	     -6.87317810	     -1.23572875	     -5.16968051
      3.67000000	     -0.24165637	     -1.22512449	   -352.25604407	      0.10844861	      0.94980114	     -0.41961052	     26.90290630	      4.17089646	     -5.64823649	    -61.08260484	      7.15509861	     -4.81399706	      7.71704233	     -5.85858096	      0.66178863	    -21.55427643	     12.36076314	      2.43728017	     -7.05150197	     -1.11783470	     -5.65128038
      3.68000000	     -0.11768983	     -1.24921312	   -352.75757793	      0.11643715	      0.95008621	     -0.42043604	     27.53499291	      3.98358302	     -6.45519243	    -59.52379291	      7.45235902	     -4.84336943	      6.63168268	     -5.94590739	      0.00410304	    -21.00675245	     12.66994545	      2.34478938	     -7.22420553	     -1.03724098	     -6.13004893
      3.69000000	     -0.03095771	     -1.26729264	   -353.25234323	      0.12440409	      0.95009808	     -0.42118104	     28.13336684	      3.79338236	     -7.23980664	    -57.82178031	      7.73026771	     -4.83285091	      5.61064481	     -6.00781181	     -0.63132965	    -20.50518231	     13.02199215	      2.26886593	     -7.36282305	     -0.96317233	     -6.56703856
      3.70000000	      0.03511197	     -1.26685195	   -353.74079299	      0.13235532	      0.94986779	     -0.42184497	     28.67957021	      3.59296970	     -7.99050341	    -55.98409254	      7.96512310	     -4.78356305	      4.63747758	     -6.03657029	     -1.26078183	    -20.05374186	     13.40054001	      2.20922687	     -7.48811058	     -0.90630722	     -6.96832626
      3.71000000	      0.09409769	     -1.24247200	   -354.22156880	      0.14030395	      0.94941928	     -0.42242903	     29.15569587	      3.38515503	     -8.69216242	    -54.01036283	      8.13681474	     -4.68778600	      3.70056981	     -6.03026322	     -1.88359708	    -19.65927621	     13.79372205	      2.17380437	     -7.61457031	     -0.86842365	     -7.35074408
      3.72000000	      0.13583830	     -1.21632344	   -354.69207896	      0.14826748	      0.94873299	     -0.42292701	     29.56849604	      3.19352876	     -9.35723371	    -51.89608975	      8.27334732	     -4.55816977	      2.81404884	     -6.01024207	     -2.47124756	    -19.32326425	     14.22782092	      2.14310090	     -7.72481900	     -0.82684237	     -7.69100592
      3.73000000	      0.16647500	     -1.18510651	   -355.14848644	      0.15625261	      0.94782508	     -0.42335142	     29.90948744	      3.01420816	     -9.98951422	    -49.64502333	      8.36891668	     -4.41552760	      1.97452649	     -5.97553925	     -3.02829325	    -19.04966849	     14.69200065	      2.11260915	     -7.82562090	     -0.78113752	     -8.00302333
      3.74000000	      0.20094691	     -1.13802467	   -355.58815341	      0.16426798	      0.94672841	     -0.42372041	     30.16436096	      2.82935566	    -10.60718603	    -47.27020123	      8.44659626	     -4.26982858	      1.16779808	     -5.91845816	     -3.56770738	    -18.84097363	     15.18507067	      2.09325045	     -7.93579566	     -0.73953953	     -8.29477438
      3.75000000	      0.22918911	     -1.07973663	   -356.00547550	      0.17233811	      0.94544363	     -0.42404673	     30.34583527	      2.63620927	    -11.23715584	    -44.78315708	      8.51462259	     -4.14806004	      0.39816302	     -5.84279691	     -4.07396234	    -18.68488156	     15.69389681	      2.07905921	     -8.03885526	     -0.69545691	     -8.56224727
      3.76000000	      0.24879250	     -1.01636138	   -356.39387093	      0.18045708	      0.94398650	     -0.42434198	     30.45744103	      2.44281191	    -11.88613192	    -42.18671811	      8.59138369	     -4.06337906	     -0.32636274	     -5.75683366	     -4.53928591	    -18.58795163	     16.22029170	      2.05455149	     -8.13417646	     -0.63965049	     -8.82665851
      3.77000000	      0.27818086	     -0.93134692	   -356.75972192	      0.18867432	      0.94240800	     -0.42461453	     30.48617299	      2.22097183	    -12.60362489	    -39.51232987	      8.71024128	     -4.00729096	     -1.04905458	     -5.64482534	     -4.98575625	    -18.51573302	     16.74262320	      2.06717281	     -8.23812322	     -0.59198198	     -9.05060142
      3.78000000	      0.29245549	     -0.84345172	   -357.08967109	      0.19695822	      0.94069533	     -0.42484763	     30.46129574	      2.01078701	    -13.34337242	    -36.75791273	      8.84319614	     -3.96591751	     -1.72723351	     -5.53014684	     -5.38244230	    -18.48901829	     17.26668360	      2.07669667	     -8.32493511	     -0.52977283	     -9.28813071
      3.79000000	      0.31480144	     -0.73872405	   -357.40484661	      0.20538469	      0.93891085	     -0.42503435	     30.36257020	      1.80071005	    -14.12105443	    -33.95916662	      9.04674488	     -3.93100139	     -2.42312638	     -5.39695611	     -5.76637062	    -18.45534863	     17.76942929	      2.17097252	     -8.41290992	     -0.46874743	     -9.48375303
      3.80000000	      0.30064341	     -0.64483983	   -357.68110757	      0.21387387	      0.93699592	     -0.42514989	     30.25484472	      1.62288652	    -14.91118869	    -31.14356942	      9.21804062	     -3.86576102	     -3.04275147	     -5.28352954	     -6.10645895	    -18.48199372	     18.27840256	      2.21881383	     -8.45776182	     -0.38378282	     -9.69425834
      3.81000000	      0.29485661	     -0.53309906	   -357.95537526	      0.22250827	      0.93506096	     -0.42514028	     30.09114318	      1.47514831	    -15.63911725	    -28.34823717	      9.43726913	     -3.75773941	     -3.69396903	     -5.15183576	     -6.40434440	    -18.48427212	     18.72797696	      2.40038564	     -8.50353748	     -0.30944107	     -9.86574614
      3.82000000	      0.24489490	     -0.43339679	   -358.20380116	      0.23123837	      0.93301564	     -0.42503003	     29.95682455	      1.35815431	    -16.35626352	    -25.64818630	      9.61521130	     -3.61868782	     -4.27105182	     -5.04652622	     -6.69356800	    -18.53684333	     19.17750676	      2.53589072	     -8.49176624	     -0.20867131	    -10.04283003
      3.83000000	      0.20587684	     -0.31214643	   -358.45533196	      0.24010307	      0.93099622	     -0.42476026	     29.79417315	      1.26202848	    -16.96522099	    -23.08696914	      9.82023955	     -3.38461449	     -4.88008769	     -4.92072769	     -6.92667519	    -18.57165085	     19.55658382	      2.84715106	     -8.48543098	     -0.12585364	    -10.18880457
      3.84000000	      0.12479613	     -0.21367326	   -358.68206726	      0.24908824	      0.92892410	     -0.42436768	     29.68359445	      1.19073139	    -17.58968303	    -20.74637356	      9.94809561	     -3.21279829	     -5.42729939	     -4.83128222	     -7.12436806	    -18.64123944	     19.88503970	      3.01432149	     -8.42061192	     -0.00500112	    -10.35026413
      3.85000000	      0.08335702	     -0.08190591	   -358.92825165	      0.25825691	      0.92696360	     -0.42379126	     29.54848500	      1.10784428	    -18.15533448	    -18.69735725	     10.12407383	     -2.94619288	     -6.05507027	     -4.70715941	     -7.28371504	    -18.66909964	     20.12934681	      3.40904224	     -8.39074239	      0.08503982	    -10.48043053
      3.86000000	      0.01790289	      0.01889665	   -359.15623447	      0.26759358	      0.92502541	     -0.42306434	     29.47098654	      1.04189824	    -18.80938094	    -17.00367624	     10.22986335	     -2.80578781	     -6.64570707	     -4.62920055	     -7.41157824	    -18.72741803	     20.29501719	      3.64971182	     -8.31782006	      0.22248884	    -10.63765957
      3.87000000	     -0.00604619	      0.13719204	   -359.42539583	      0.27715494	      0.92323518	     -0.42208166	     29.39434255	      0.97295790	    -19.46175095	    -15.73287261	     10.37555469	     -2.62452625	     -7.31655080	     -4.53621938	     -7.54590666	    -18.75402363	     20.38397448	      4.13264414	     -8.27787395	      0.34010438	    -10.75267065
      3.88000000	     -0.01820233	      0.23084989	   -359.69498014	      0.28694896	      0.92156227	     -0.42090129	     29.34515186	      0.91414182	    -20.20079129	    -14.90607579	     10.47871939	     -2.58573242	     -8.00152811	     -4.47793166	     -7.64324764	    -18.79915325	     20.36849131	      4.54081218	     -8.23019803	      0.49495134	    -10.88558860
      3.89000000	     -0.01239991	      0.30842080	   -359.98336534	      0.29699389	      0.92002619	     -0.41947715	     29.31095918	      0.86680057	    -20.96175774	    -14.52886514	     10.55204121	     -2.65446296	     -8.70671906	     -4.44453244	     -7.71892233	    -18.87171379	     20.25581686	      5.00775437	     -8.18248056	      0.67253714	    -11.01552543
      3.90000000	      0.00920868	      0.36537103	   -360.29254746	      0.30729382	      0.91863292	     -0.41779965	     29.27770842	      0.83800917	    -21.69689296	    -14.56762358	     10.56916780	     -2.84064671	     -9.41936804	     -4.43999191	     -7.76378702	    -18.99159257	     20.03954465	      5.51813026	     -8.13232852	      0.87810903	    -11.13826325
      3.91000000	      0.03435037	      0.40341514	   -360.61139628	      0.31784573	      0.91737398	     -0.41588314	     29.23960093	      0.82519199	    -22.36356842	    -14.96341367	     10.52083165	     -3.11947764	    -10.11506233	     -4.45944297	     -7.72573803	    -19.17536307	     19.70517396	      6.05198526	     -8.06598254	      1.11161158	    -11.26506567
      3.92000000	      0.04362154	      0.41323499	   -360.96295661	      0.32861468	      0.91622020	     -0.41367015	     29.19942799	      0.86362255	    -22.88066245	    -15.62306869	     10.32778092	     -3.58711121	    -10.73599017	     -4.52809061	     -7.70771646	    -19.49232201	     19.26990776	      6.72904946	     -7.96601030	      1.38048997	    -11.37660337
      3.93000000	      0.02715176	      0.39601215	   -361.31493184	      0.33956386	      0.91519124	     -0.41122989	     29.15271902	      0.94083996	    -23.27126881	    -16.45457839	      9.99042505	     -4.13553325	    -11.25376982	     -4.63647817	     -7.57626555	    -19.95997482	     18.68953752	      7.43396972	     -7.82645541	      1.68794261	    -11.48471315
      3.94000000	     -0.03717929	      0.34404280	   -361.67737037	      0.35063880	      0.91427885	     -0.40854031	     29.11703753	      1.08280480	    -23.50406910	    -17.35888635	      9.46218784	     -4.77988012	    -11.61122129	     -4.80255224	     -7.37328001	    -20.63227608	     17.96409723	      8.22782593	     -7.62830931	      2.04189936	    -11.58169657
      3.95000000	     -0.15937715	      0.25423339	   -362.06116679	      0.36178979	      0.91350540	     -0.40559023	     29.10744372	      1.30390207	    -23.57030699	    -18.26343705	      8.74812363	     -5.50271059	    -11.77315274	     -5.03233394	     -7.11184084	    -21.54488482	     17.07170249	      9.12059560	     -7.36672339	      2.44410923	    -11.65720363
      3.96000000	     -0.32867281	      0.13419129	   -362.47902703	      0.37298086	      0.91292516	     -0.40237505	     29.11895208	      1.60519869	    -23.46703084	    -19.12094285	      7.89807821	     -6.29116340	    -11.74182519	     -5.31136303	     -6.77390199	    -22.70367891	     15.96122890	     10.13925056	     -7.05969286	      2.88283399	    -11.68552737
